# xmcd
#
# Track frame offsets:
#	150
#	22829
#	39345
#	66592
#	82889
#	100266
#	118433
#	141835
#	159008
#	177799
#	199408
#	221786
#	235524
#
# Disc length: 3451 seconds
#
# Revision: 1
# Processed by: cddbd v1.5.2PL0 Copyright (c) Steve Scherf et al.
# Submitted via: EasyCDDAExtractor 10.0.3.1
#
DISCID=ad0d790d
DTITLE=Gospelchor Zug, E. Brown, B. Bush - Gospel Diamonds
DYEAR=2001
DGENRE=Gospel
TTITLE0=blessed be the lord
TTITLE1=anybody here
TTITLE2=we will overcome
TTITLE3=i'll fly away
TTITLE4=i go to the rock
TTITLE5=in this house
TTITLE6=imagine
TTITLE7=movin on
TTITLE8=one less stone
TTITLE9=knockin on heavens door
TTITLE10=all i want is your lord
TTITLE11=let the sun shine
TTITLE12=shine your light
EXTD=
EXTT0=
EXTT1=
EXTT2=
EXTT3=
EXTT4=
EXTT5=
EXTT6=
EXTT7=
EXTT8=
EXTT9=
EXTT10=
EXTT11=
EXTT12=
PLAYORDER=
